<svg width="20" height="21" viewBox="0 0 26 24" fill="none" xmlns="http://www.w3.org/2000/svg">
<path d="M18.1277 0H7.88665C3.53888 0 0 3.25333 0 7.25333V16.7467C0 20.7467 3.53888 24 7.88665 24H18.1133C22.4755 24 26 20.7467 26 16.7467V7.25333C26.0144 3.25333 22.4755 0 18.1277 0ZM23.8333 17.3333C23.8333 19.9067 21.5655 22 18.7777 22H7.22221C4.43444 22 2.16666 19.9067 2.16666 17.3333V6.66667C2.16666 4.09333 4.43444 2 7.22221 2H18.7777C21.5655 2 23.8333 4.09333 23.8333 6.66667V17.3333Z" fill="#607B96"/>
<path d="M20.0339 7.13338C20.9035 7.13338 21.6084 6.4827 21.6084 5.68005C21.6084 4.87739 20.9035 4.22672 20.0339 4.22672C19.1644 4.22672 18.4595 4.87739 18.4595 5.68005C18.4595 6.4827 19.1644 7.13338 20.0339 7.13338Z" fill="#607B96"/>
<path d="M13.0432 5.93335C9.35991 5.93335 6.35547 8.68002 6.35547 12.0667C6.35547 15.4667 9.34546 18.2134 13.0432 18.2134C16.741 18.2134 19.731 15.4654 19.731 12.0667C19.7166 8.68002 16.7266 5.93335 13.0432 5.93335ZM13.1155 16C10.7177 16 8.78213 14.2134 8.78213 12.0134C8.78213 9.81335 10.7177 8.02668 13.1155 8.02668C15.5132 8.02668 17.4488 9.81335 17.4488 12.0134C17.4488 14.2134 15.5132 16 13.1155 16Z" fill="#607B96"/>
</svg>
