<svg width="20" height="21" viewBox="0 0 26 24" fill="none" xmlns="http://www.w3.org/2000/svg">
<path d="M5.89771 24V7.80869H0.32852V24H5.89771ZM3.11312 5.60352C5.05295 5.60352 6.27317 4.36501 6.27317 2.80931C6.24188 1.20831 5.06859 0 3.16005 0C1.2515 0 0 1.20831 0 2.79421C0 4.34991 1.20457 5.58842 3.08183 5.58842H3.11312V5.60352Z" fill="#607B96"/>
<path d="M8.99512 24H14.5643V14.9528C14.5643 14.4695 14.5956 13.9862 14.752 13.6388C15.1588 12.6722 16.0661 11.6753 17.6149 11.6753C19.6329 11.6753 20.4307 13.1555 20.4307 15.3304V24H25.9999V14.7112C25.9999 9.74201 23.2466 7.43112 19.586 7.43112C16.5824 7.43112 15.2526 9.04723 14.5174 10.1649H14.5487V7.80872H8.99512C9.05769 9.3191 8.99512 24 8.99512 24Z" fill="#607B96"/>
</svg>
