<svg width="24" height="25" viewBox="0 0 24 25" fill="none" xmlns="http://www.w3.org/2000/svg">
<g clip-path="url(#clip0_6_13)">
<path d="M11.925 0.0679626L12.5655 1.32109C12.7095 1.55234 12.8655 1.75703 13.0493 1.94765C13.5855 2.50624 14.0948 3.0914 14.5523 3.71796C15.6375 5.20234 16.3695 6.85077 16.8923 8.63359C17.2058 9.72265 17.376 10.8398 17.3888 11.9695C17.4413 15.3469 16.3298 18.2469 14.0888 20.657C13.7228 21.0383 13.3313 21.3914 12.9113 21.7055C12.6893 21.7055 12.5843 21.5281 12.4928 21.3648C12.3225 21.0656 12.2183 20.7242 12.1658 20.3844C12.087 19.9758 12.0353 19.5672 12.0608 19.1453V18.9547C12.0428 18.9141 11.847 0.164056 11.925 0.0679626Z" fill="#45596E"/>
<path d="M11.925 0.026679C11.8987 -0.0280085 11.8725 0.0133977 11.8462 0.0399602C11.859 0.313398 11.7675 0.557148 11.6242 0.78996C11.4667 1.02121 11.2582 1.19855 11.049 1.38918C9.88649 2.43762 8.97149 3.70402 8.23874 5.12043C7.26374 7.02668 6.76124 9.06965 6.61874 11.2204C6.55349 11.9962 6.85424 14.7337 7.08899 15.5236C7.72949 17.6204 8.87999 19.3775 10.3702 20.9025C10.7362 21.2696 11.1277 21.6103 11.5327 21.9376C11.6505 21.9376 11.6632 21.8282 11.6902 21.747C11.7419 21.5731 11.7812 21.3956 11.808 21.2157L12.0705 19.1736L11.925 0.026679Z" fill="#607B96"/>
<path d="M12.5655 22.5352C12.5918 22.2227 12.7358 21.9633 12.8925 21.7047C12.735 21.6367 12.618 21.5016 12.5265 21.3508C12.4478 21.2149 12.3825 21.0516 12.3315 20.9016C12.1485 20.3297 12.1095 19.7297 12.057 19.1453V18.7914C11.9918 18.8461 11.9783 19.3086 11.9783 19.3773C11.9401 19.995 11.8614 20.6092 11.7428 21.2156C11.7038 21.4609 11.6775 21.7055 11.5328 21.9234C11.5328 21.9508 11.5328 21.9781 11.5455 22.0188C11.781 22.7406 11.8455 23.4758 11.8853 24.225V24.4984C11.8853 24.825 11.8725 24.7563 12.1328 24.8656C12.2378 24.9063 12.3548 24.9203 12.4598 25.0016C12.5385 25.0016 12.5513 24.9336 12.5513 24.8789L12.5123 24.4297V23.1766C12.4995 22.9578 12.5385 22.7406 12.5648 22.5359L12.5655 22.5352Z" fill="#91A6BA"/>
</g>
<defs>
<clipPath id="clip0_6_13">
<rect width="24" height="25" fill="white"/>
</clipPath>
</defs>
</svg>
