<svg width="24" height="25" viewBox="0 0 24 25" fill="none" xmlns="http://www.w3.org/2000/svg">
<path d="M12.0035 23.6557C11.7165 23.6557 11.432 23.5776 11.1805 23.4265L8.5605 21.8104C8.169 21.5823 8.36 21.5015 8.489 21.4552C9.011 21.2651 9.1165 21.2219 9.6735 20.8922C9.732 20.8573 9.8085 20.8698 9.8685 20.9068L11.8815 22.151C11.954 22.1922 12.0575 22.1922 12.1245 22.151L19.973 17.4318C20.0455 17.3885 20.093 17.301 20.093 17.2109V7.77708C20.093 7.68281 20.046 7.59895 19.9715 7.55208L12.1265 2.83646C12.054 2.79166 11.9575 2.79166 11.885 2.83646L4.041 7.55156C3.965 7.59635 3.9165 7.68437 3.9165 7.77447V17.2088C3.9165 17.2989 3.9635 17.3849 4.0385 17.4276L6.188 18.7208C7.355 19.3286 8.068 18.6125 8.068 17.8922V8.58124C8.068 8.44843 8.168 8.34583 8.296 8.34583H9.29C9.414 8.34583 9.516 8.44791 9.516 8.58124V17.8969C9.516 19.5177 8.6675 20.4489 7.192 20.4489C6.738 20.4489 6.3805 20.4489 5.3825 19.9375L3.3235 18.7016C2.8145 18.3943 2.5 17.8208 2.5 17.2094V7.775C2.5 7.16093 2.8145 6.58802 3.323 6.28489L11.18 1.56354C11.677 1.27083 12.337 1.27083 12.8305 1.56354L20.6775 6.28698C21.1835 6.59166 21.5 7.16302 21.5 7.77708V17.2114C21.5 17.8234 21.1835 18.3943 20.677 18.7016L12.83 23.4224C12.5785 23.5739 12.2935 23.6515 12.003 23.6515" fill="#607B96"/>
<path d="M14.428 17.1547C10.994 17.1547 10.274 15.5125 10.274 14.1354C10.274 14.0047 10.3755 13.9 10.5015 13.9H11.5155C11.6275 13.9 11.722 13.9849 11.7395 14.1C11.8925 15.176 12.3485 15.7187 14.425 15.7187C16.079 15.7187 16.7825 15.3297 16.7825 14.4156C16.7825 13.8896 16.582 13.4989 14.0125 13.237C11.863 13.0161 10.535 12.5229 10.535 10.7323C10.535 9.0828 11.871 8.10051 14.1085 8.10051C16.6215 8.10051 17.867 9.00936 18.024 10.9614C18.03 11.0292 18.0065 11.0943 17.963 11.1437C17.92 11.1906 17.859 11.2193 17.796 11.2193H16.7765C16.6705 11.2193 16.578 11.1417 16.5565 11.0349C16.311 9.90311 15.7175 9.54113 14.1045 9.54113C12.299 9.54113 12.089 10.1958 12.089 10.687C12.089 11.2823 12.3365 11.4562 14.7725 11.7922C17.185 12.1255 18.3305 12.5963 18.3305 14.3625C18.3305 16.1427 16.904 17.164 14.417 17.164" fill="#607B96"/>
</svg>
