<svg width="26" height="27" viewBox="0 0 26 27" fill="none" xmlns="http://www.w3.org/2000/svg">
<path d="M24.0271 16.0724C20.9722 16.7058 20.7502 15.6654 20.7502 15.6654C23.9774 10.8513 25.3273 4.74068 24.1624 3.24543C20.987 -0.835404 15.4892 1.09556 15.3972 1.1455L15.3676 1.15082C14.6961 1.01536 14.0134 0.94384 13.3285 0.93721C11.9459 0.915956 10.8973 1.30172 10.1003 1.90854C10.1003 1.90854 0.292823 -2.15317 0.749475 7.01702C0.846725 8.96817 3.52956 21.7888 6.73246 17.9099C7.91215 16.4837 9.04321 15.286 9.04321 15.286C9.60345 15.6612 10.2768 15.8525 10.9819 15.7834L11.0368 15.7366C11.0207 15.9203 11.0281 16.1053 11.059 16.2871C10.2345 17.2138 10.4776 17.3764 8.82862 17.7175C7.16057 18.0629 8.14153 18.6782 8.78 18.8398C9.55588 19.0353 11.3508 19.3116 12.5643 17.6049L12.5157 17.7994C12.8391 18.0597 13.0653 19.4923 13.0273 20.7909C12.9892 22.0896 12.9639 22.9801 13.2176 23.6773C13.4713 24.3744 13.7249 25.9408 15.8919 25.4839C17.7027 25.0939 18.6403 24.0811 18.7724 22.3956C18.8655 21.1969 19.0748 21.3733 19.0896 20.3021L19.2587 19.7941C19.4521 18.1681 19.2904 17.6442 20.4056 17.8886L20.6773 17.9131C21.4986 17.9503 22.5736 17.7802 23.2037 17.4859C24.562 16.8525 25.3664 15.794 24.0271 16.0724Z" fill="#607B96"/>
<path d="M12.6943 16.9938C12.6097 20.0183 12.7155 23.0641 13.0093 23.7952C13.3032 24.5264 13.9343 25.9738 16.1023 25.5083C17.913 25.1183 18.5727 24.3627 18.8581 22.6953L19.5272 17.3636M10.096 1.83202C10.096 1.83202 0.282254 -2.20206 0.738906 6.96814C0.836156 8.91929 3.51899 21.7399 6.7219 17.861C7.89101 16.4444 8.94808 15.336 8.94808 15.336M15.3962 1.09556C15.0579 1.20183 20.8549 -1.03519 24.1508 3.19761C25.3136 4.69286 23.9658 10.8035 20.7386 15.6176" stroke="#45596E" stroke-linecap="round" stroke-linejoin="round"/>
<path d="M20.7396 15.6155C20.7396 15.6155 20.951 16.6569 24.0165 16.0214C25.3558 15.743 24.5493 16.8015 23.192 17.4348C22.0779 17.9556 19.579 18.0884 19.5377 17.3711C19.432 15.5166 20.8527 16.0799 20.7502 15.6155C20.6572 15.1968 20.0208 14.7866 19.6022 13.7621C19.2354 12.8694 14.5706 6.01488 20.8961 7.0319C21.1286 6.98408 19.2471 0.974404 13.3275 0.887261C7.40792 0.800118 7.59502 8.20408 7.59502 8.20408" stroke="#45596E" stroke-linecap="round" stroke-linejoin="bevel"/>
<path d="M11.0379 16.251C10.2134 17.1777 10.4565 17.3403 8.80748 17.6814C7.13943 18.0268 8.12039 18.6421 8.75886 18.8036C9.53474 18.9992 11.3296 19.2755 12.5432 17.5677C12.9131 17.047 12.541 16.218 12.0336 16.0076C11.7884 15.9056 11.4607 15.7781 11.04 16.252L11.0379 16.251Z" stroke="#45596E" stroke-linejoin="round"/>
<path d="M10.984 16.235C10.8994 15.6899 11.1616 15.0427 11.4417 14.2839C11.8624 13.1468 12.8328 12.0097 12.0569 8.39962C11.4787 5.71094 7.59609 7.83957 7.59609 8.20408C7.59609 8.56859 7.77156 10.0532 7.53266 11.7801C7.21872 14.0352 8.9597 15.9417 10.9639 15.7473" stroke="#45596E" stroke-linecap="round" stroke-linejoin="round"/>
<path d="M10.0601 8.14989C10.0421 8.27422 10.2873 8.60685 10.6055 8.65149C10.9237 8.69612 11.1954 8.43682 11.2133 8.31142C11.2313 8.18602 10.9861 8.04999 10.6679 8.00536C10.3497 7.96072 10.0759 8.02661 10.0601 8.14989Z" fill="#45596E" stroke="#45596E" stroke-width="0.3"/>
<path d="M19.7471 7.8959C19.764 8.02023 19.5198 8.35286 19.2016 8.3975C18.8834 8.44213 18.6097 8.18283 18.5938 8.05743C18.578 7.93203 18.8211 7.796 19.1393 7.75137C19.4574 7.70673 19.7312 7.77262 19.7471 7.8959Z" fill="#45596E" stroke="#45596E" stroke-width="0.3"/>
<path d="M20.8845 7.03403C20.9373 8.01173 20.6752 8.67593 20.6413 9.71633C20.5927 11.2275 21.358 12.9576 20.2048 14.6899" stroke="#45596E" stroke-linecap="round" stroke-linejoin="round"/>
</svg>
