<svg width="24" height="25" viewBox="0 0 24 25" fill="none" xmlns="http://www.w3.org/2000/svg">
<g clip-path="url(#clip0_4_5)">
<path d="M22.875 0H1.125C0.50368 0 0 0.524666 0 1.17188V23.8281C0 24.4753 0.50368 25 1.125 25H22.875C23.4963 25 24 24.4753 24 23.8281V1.17188C24 0.524666 23.4963 0 22.875 0Z" fill="#607B96"/>
<path fill-rule="evenodd" clip-rule="evenodd" d="M13.9242 19.4273V22.1668C14.3502 22.3949 14.8541 22.5662 15.4359 22.6803C16.0176 22.7945 16.6308 22.8516 17.2754 22.8516C17.9035 22.8516 18.5003 22.7889 19.0656 22.6633C19.6311 22.5377 20.1266 22.3309 20.5528 22.0426C20.9788 21.7543 21.3161 21.3777 21.5648 20.9125C21.8132 20.4475 21.9375 19.8725 21.9375 19.1876C21.9375 18.6911 21.8664 18.256 21.7245 17.8821C21.5824 17.5083 21.3776 17.1759 21.1099 16.8848C20.8423 16.5938 20.5213 16.3327 20.1473 16.1016C19.773 15.8704 19.3511 15.6521 18.8812 15.4467C18.5371 15.2983 18.2285 15.1542 17.9554 15.0144C17.6823 14.8746 17.4501 14.7319 17.259 14.5863C17.0678 14.4408 16.9203 14.2867 16.8165 14.1241C16.7127 13.9614 16.6608 13.7774 16.6608 13.5719C16.6608 13.3836 16.7072 13.2138 16.8001 13.0626C16.893 12.9113 17.0241 12.7815 17.1934 12.673C17.3627 12.5646 17.5703 12.4804 17.8161 12.4205C18.0619 12.3606 18.335 12.3306 18.6355 12.3306C18.8541 12.3306 19.0847 12.3478 19.3279 12.382C19.5709 12.4162 19.8154 12.469 20.0612 12.5404C20.307 12.6117 20.5459 12.7016 20.7782 12.81C21.0103 12.9185 21.2246 13.044 21.4213 13.1867V10.6271C21.0225 10.4673 20.5869 10.3489 20.1144 10.2718C19.6419 10.1948 19.0999 10.1562 18.488 10.1562C17.8653 10.1562 17.2753 10.2262 16.7182 10.366C16.161 10.5058 15.6708 10.7241 15.2474 11.0209C14.8241 11.3176 14.4895 11.6957 14.2437 12.1551C13.9979 12.6146 13.875 13.1638 13.875 13.803C13.875 14.6192 14.1003 15.3154 14.551 15.8918C15.0016 16.4682 15.6858 16.9562 16.6035 17.3557C16.964 17.5098 17.2999 17.661 17.6113 17.8094C17.9226 17.9578 18.1917 18.1119 18.4184 18.2717C18.645 18.4315 18.8239 18.6055 18.9549 18.7938C19.0862 18.9822 19.1516 19.1962 19.1516 19.4359C19.1516 19.6129 19.1107 19.777 19.0288 19.9281C18.9469 20.0793 18.8226 20.2105 18.656 20.3219C18.4894 20.4332 18.2818 20.5203 18.0332 20.583C17.7847 20.6457 17.4938 20.6771 17.1606 20.6771C16.5925 20.6771 16.0299 20.573 15.4727 20.3646C14.9156 20.1564 14.3994 19.8439 13.9242 19.4273ZM9.50674 12.6083H12.9375V10.3516H3.375V12.6083H6.78898V22.6562H9.50674V12.6083Z" fill="#011627"/>
</g>
<defs>
<clipPath id="clip0_4_5">
<rect width="24" height="25" fill="white"/>
</clipPath>
</defs>
</svg>
