<svg width="154" height="85" viewBox="0 0 154 85" fill="none" xmlns="http://www.w3.org/2000/svg">
<path d="M91.5 7.5L46.5 79.5001H35.5L6.72479 42.2338C5.69067 40.8945 5.61111 39.0495 6.5261 37.6261L27.5 5.00008H76.5L41 61" stroke="#0094F3" stroke-width="10"/>
<path d="M118.641 5L122.624 1.97755L121.124 0H118.641V5ZM131.288 21.6667L135.302 18.6846L135.287 18.6643L135.271 18.6442L131.288 21.6667ZM147.516 43.5062L143.502 46.4883L147.516 43.5062ZM147.236 48.614L143.572 45.2113L143.572 45.2113L147.236 48.614ZM131.288 65.7843L127.625 62.3816L127.588 62.4209L127.553 62.4609L131.288 65.7843ZM118.641 80V85H120.885L122.377 83.3234L118.641 80ZM63.5 80L59.3078 77.2751L54.2866 85H63.5V80ZM92.3159 6.81101L88.131 4.07477L88.131 4.07478L92.3159 6.81101ZM80.8151 15.2638C79.304 17.5751 79.9525 20.6738 82.2638 22.1849C84.575 23.6961 87.6737 23.0475 89.1849 20.7363L80.8151 15.2638ZM83 50L78.8134 47.2664L78.8078 47.2751L83 50ZM105.687 24.4002L108.42 20.2137L100.047 14.7465L97.3134 18.9331L105.687 24.4002ZM96.3824 10H118.641V0H96.3824V10ZM114.658 8.02245L127.305 24.6891L135.271 18.6442L122.624 1.97755L114.658 8.02245ZM127.275 24.6487L143.502 46.4883L151.529 40.5241L135.302 18.6846L127.275 24.6487ZM143.572 45.2113L127.625 62.3816L134.952 69.187L150.9 52.0167L143.572 45.2113ZM127.553 62.4609L114.906 76.6766L122.377 83.3234L135.024 69.1077L127.553 62.4609ZM118.641 75H63.5V85H118.641V75ZM96.3824 0H95.6638V10H96.3824V0ZM88.131 4.07478L80.8151 15.2638L89.1849 20.7363L96.5007 9.54725L88.131 4.07478ZM67.6922 82.7249L87.1922 52.7249L78.8078 47.2751L59.3078 77.2751L67.6922 82.7249ZM87.1866 52.7336L105.687 24.4002L97.3134 18.9331L78.8134 47.2664L87.1866 52.7336ZM95.6638 0C92.6261 0 89.7934 1.53233 88.131 4.07477L96.5007 9.54725C96.316 9.82974 96.0013 10 95.6638 10V0ZM143.502 46.4883C143.215 46.1014 143.244 45.5645 143.572 45.2113L150.9 52.0167C153.852 48.8382 154.116 44.0061 151.529 40.5241L143.502 46.4883Z" fill="#0094F3"/>
</svg>
